HIERARCHY
ROOT Hips
{
	OFFSET 0.000000 0.000000 0.000000
	CHANNELS 6 Xposition Yposition Zposition Xrotation Yrotation Zrotation
	JOINT LeftUpLeg_virtual
	{
		OFFSET 0.000000 0.000000 0.000000
		CHANNELS 3 Xrotation Yrotation Zrotation
		JOINT LeftUpLeg
		{
			OFFSET 11.394100 -6.187798 -0.413800
			CHANNELS 3 Xrotation Yrotation Zrotation
			JOINT LeftLeg
			{
				OFFSET 0.430247 -32.302673 3.732800
				CHANNELS 3 Xrotation Yrotation Zrotation
				JOINT LeftFoot
				{
					OFFSET -0.430247 -48.264931 -6.423300
					CHANNELS 3 Xrotation Yrotation Zrotation
					JOINT LeftToeBase
					{
						OFFSET 4.230900 -16.068199 23.438400
						CHANNELS 3 Xrotation Yrotation Zrotation
						JOINT LeftToe_End
						{
							OFFSET 4.510700 0.695400 19.974600
							CHANNELS 3 Xrotation Yrotation Zrotation
							End Site
							{
								OFFSET 0 0 0
							}
						}
					}
				}
			}
		}
	}
	JOINT RightUpLeg_virtual
	{
		OFFSET 0.000000 0.000000 0.000000
		CHANNELS 3 Xrotation Yrotation Zrotation
		JOINT RightUpLeg
		{
			OFFSET -11.333700 -6.187798 -0.413800
			CHANNELS 3 Xrotation Yrotation Zrotation
			JOINT RightLeg
			{
				OFFSET -0.430392 -32.302628 3.733000
				CHANNELS 3 Xrotation Yrotation Zrotation
				JOINT RightFoot
				{
					OFFSET 0.430392 -48.264973 -6.423500
					CHANNELS 3 Xrotation Yrotation Zrotation
					JOINT RightToeBase
					{
						OFFSET -4.230900 -16.068199 23.438400
						CHANNELS 3 Xrotation Yrotation Zrotation
						JOINT RightToe_End
						{
							OFFSET -4.510700 0.695400 19.974600
							CHANNELS 3 Xrotation Yrotation Zrotation
							End Site
							{
								OFFSET 0 0 0
							}
						}
					}
				}
			}
		}
	}
	JOINT Spine_virtual
	{
		OFFSET 0.000000 0.000000 0.000000
		CHANNELS 3 Xrotation Yrotation Zrotation
		JOINT Spine
		{
			OFFSET -0.002400 12.777504 0.315300
			CHANNELS 3 Xrotation Yrotation Zrotation
			JOINT Spine1
			{
				OFFSET -0.002067 5.816869 0.032633
				CHANNELS 3 Xrotation Yrotation Zrotation
				JOINT Spine1_split
				{
					OFFSET -0.002067 5.816869 0.032633
					CHANNELS 3 Xrotation Yrotation Zrotation
					JOINT Spine2
					{
						OFFSET -0.002067 5.816869 0.032633
						CHANNELS 3 Xrotation Yrotation Zrotation
						JOINT Neck_virtual
						{
							OFFSET 0.000000 0.000000 0.000000
							CHANNELS 3 Xrotation Yrotation Zrotation
							JOINT Neck
							{
								OFFSET -0.003700 21.199493 -0.826900
								CHANNELS 3 Xrotation Yrotation Zrotation
								JOINT Head
								{
									OFFSET 0.000000 20.442200 4.834800
									CHANNELS 3 Xrotation Yrotation Zrotation
									JOINT HeadTop_End
									{
										OFFSET 0.000000 34.668396 4.968400
										CHANNELS 3 Xrotation Yrotation Zrotation
										End Site
										{
											OFFSET 0 0 0
										}
									}
								}
							}
						}
						JOINT LeftShoulder_virtual
						{
							OFFSET 0.000000 0.000000 0.000000
							CHANNELS 3 Xrotation Yrotation Zrotation
							JOINT LeftShoulder
							{
								OFFSET 3.288150 8.794197 -1.372250
								CHANNELS 3 Xrotation Yrotation Zrotation
								JOINT LeftShoulder_split
								{
									OFFSET 3.288150 8.794197 -1.372250
									CHANNELS 3 Xrotation Yrotation Zrotation
									JOINT LeftArm
									{
										OFFSET 11.953299 -2.279007 -0.146200
										CHANNELS 3 Xrotation Yrotation Zrotation
										JOINT LeftForeArm
										{
											OFFSET 18.448900 0.000000 0.000000
											CHANNELS 3 Xrotation Yrotation Zrotation
											JOINT LeftHand
											{
												OFFSET 29.527798 0.000000 0.000000
												CHANNELS 3 Xrotation Yrotation Zrotation
												End Site
												{
													OFFSET 0 0 0
												}
											}
										}
									}
								}
							}
						}
						JOINT RightShoulder_virtual
						{
							OFFSET 0.000000 0.000000 0.000000
							CHANNELS 3 Xrotation Yrotation Zrotation
							JOINT RightShoulder
							{
								OFFSET -3.249400 8.794197 -1.372250
								CHANNELS 3 Xrotation Yrotation Zrotation
								JOINT RightShoulder_split
								{
									OFFSET -3.249400 8.794197 -1.372250
									CHANNELS 3 Xrotation Yrotation Zrotation
									JOINT RightArm
									{
										OFFSET -11.953299 -2.279007 -0.146200
										CHANNELS 3 Xrotation Yrotation Zrotation
										JOINT RightForeArm
										{
											OFFSET -18.448900 0.000000 0.000000
											CHANNELS 3 Xrotation Yrotation Zrotation
											JOINT RightHand
											{
												OFFSET -29.527802 0.000000 0.000000
												CHANNELS 3 Xrotation Yrotation Zrotation
												End Site
												{
													OFFSET 0 0 0
												}
											}
										}
									}
								}
							}
						}
					}
				}
			}
		}
	}
}
MOTION
Frames: 9
Frame Time: 0.03333333
62.284843 98.886604 42.445435 0.000000 0.000000 0.000000 0.924033 66.368914 -3.543954 -32.848832 -11.769749 -2.193435 21.186612 -2.016465 -4.195468 8.994362 -16.759665 2.966473 1.227254 -3.460815 2.352460 0.000000 0.000000 0.000000 1.991973 70.694828 -4.650702 7.279204 -9.374794 1.724867 29.568090 3.023211 -4.855125 -0.035745 -18.366182 14.058538 -36.729807 -0.821934 2.801705 0.000000 0.000000 0.000000 -0.868510 63.943971 -2.376295 6.604863 13.963364 -3.036457 -1.075546 12.420491 -1.392725 1.224998 -1.637498 0.495485 0.000000 0.000000 0.000000 -0.345890 12.383632 -1.751636 25.849712 -15.707010 7.810076 -32.861133 -68.161900 -1.956724 0.000000 0.000000 0.000000 -0.793327 12.381119 -1.394397 -2.946325 -7.401042 -15.839702 1.420629 3.794869 -4.517847 26.979131 -53.220684 -28.995283 -2.520518 -70.681789 -2.745008 0.000000 0.000000 0.000000 -0.987650 11.956291 -2.211203 -6.644563 32.345259 19.601854 -5.854110 -0.293316 1.983685 -3.491481 26.829897 53.930733 -3.581591 49.310226 -0.229494 0.000000 0.000000 0.000000 
61.858185 98.985779 42.220856 0.000000 0.000000 0.000000 0.854002 64.258884 -3.372874 -33.061456 -11.633501 -1.622087 21.328055 -0.678437 -4.398794 8.976435 -16.350763 2.804622 1.688506 -3.470237 2.279981 0.000000 0.000000 0.000000 1.902340 68.429855 -4.489874 7.614079 -10.094770 1.149953 27.726480 1.947424 -4.871183 -4.599217 -20.269128 9.701611 -26.822445 -1.077234 4.774498 0.000000 0.000000 0.000000 -0.465097 61.848879 -2.766517 6.630031 13.586856 -2.807770 -0.979446 11.912904 -1.173165 1.090165 -1.768286 0.529537 0.000000 0.000000 0.000000 -0.247631 11.922875 -1.536248 24.020841 -15.191300 7.031696 -31.830191 -67.702966 -1.333089 0.000000 0.000000 0.000000 -0.857097 11.963268 -1.263354 -2.882887 -6.946561 -15.809301 0.715681 3.961585 -4.425657 28.576130 -55.202306 -27.792077 -1.090901 -68.325524 -1.525406 0.000000 0.000000 0.000000 -0.949190 11.596165 -1.972484 -6.950159 31.406333 20.609037 -5.888046 -0.014393 2.276155 -4.113452 25.244364 54.564554 -3.386872 48.840661 -0.270035 0.000000 0.000000 0.000000 
61.433857 99.168335 42.012993 0.000000 0.000000 0.000000 0.903654 61.754650 -3.258243 -33.233037 -11.233323 -0.796374 21.683593 0.756836 -4.628672 8.780524 -15.887647 2.410206 2.104206 -3.452814 2.234993 0.000000 0.000000 0.000000 1.981305 65.716692 -4.372097 7.860360 -10.625927 0.442673 26.158101 0.822933 -4.924163 -8.202270 -22.476766 6.036647 -18.543637 -0.996659 6.009812 0.000000 0.000000 0.000000 -0.221166 59.629621 -2.966458 6.605699 13.175848 -2.524259 -0.879554 11.353758 -1.037705 0.894632 -1.919623 0.523980 0.000000 0.000000 0.000000 -0.152188 11.389347 -1.395058 21.773791 -14.563963 5.792408 -29.957350 -66.911470 -0.269590 0.000000 0.000000 0.000000 -0.863642 11.460783 -1.205309 -2.830551 -6.525960 -15.806465 0.297786 4.321380 -4.282019 29.351430 -56.688709 -27.297725 0.429513 -66.271283 -0.310870 0.000000 0.000000 0.000000 -0.835567 11.159165 -1.809839 -7.150940 30.481854 21.483467 -5.655097 0.062239 2.549386 -4.600528 24.340619 54.369590 -3.193581 48.618133 -0.256288 0.000000 0.000000 0.000000 
61.023804 99.314545 41.793213 0.000000 0.000000 0.000000 1.054146 58.945612 -3.189661 -33.306311 -10.598168 0.236209 22.284681 2.153259 -4.831676 8.476538 -15.320314 1.873348 2.203391 -3.421583 2.201970 0.000000 0.000000 0.000000 2.249916 62.677190 -4.361451 8.005036 -10.853829 -0.284030 24.613497 0.238992 -5.105008 -10.751945 -24.405017 4.070910 -13.508571 -0.762859 5.725309 0.000000 0.000000 0.000000 -0.022366 57.229356 -3.066264 6.526230 12.724679 -2.201078 -0.784905 10.742664 -0.945217 0.754470 -2.099667 0.556015 0.000000 0.000000 0.000000 -0.085802 10.776999 -1.284438 19.238165 -13.777441 3.926688 -26.967667 -65.614690 1.431177 0.000000 0.000000 0.000000 -0.836290 10.870687 -1.170532 -2.792012 -6.125317 -15.879240 0.188345 4.623973 -4.130753 28.792768 -57.367818 -28.065572 1.761397 -64.999727 0.688668 0.000000 0.000000 0.000000 -0.671360 10.610800 -1.707568 -7.217285 29.579309 22.159147 -5.326352 -0.109155 2.790090 -4.408389 24.095132 53.197266 -2.995019 49.244756 -0.213027 0.000000 0.000000 0.000000 
60.597935 99.381485 41.590622 0.000000 0.000000 0.000000 1.421688 55.853513 -3.265393 -33.279479 -9.763122 1.409744 23.103164 3.370724 -4.942654 8.165389 -14.596925 1.409520 2.011299 -3.394974 2.151713 0.000000 0.000000 0.000000 2.570281 59.495688 -4.355054 7.973895 -11.012299 -0.824195 23.304370 0.054254 -5.372655 -12.649691 -25.848240 3.563925 -11.378036 -0.490592 3.907238 0.000000 0.000000 0.000000 0.267555 54.694529 -3.198603 6.400554 12.222799 -1.834924 -0.679463 10.064446 -0.841083 0.699706 -2.176040 0.561318 0.000000 0.000000 0.000000 -0.041064 10.075787 -1.155766 16.554833 -12.758435 1.405384 -23.237294 -63.772138 3.492034 0.000000 0.000000 0.000000 -0.778856 10.192188 -1.104625 -2.748053 -5.675107 -16.039583 0.232625 4.819149 -4.100761 26.940853 -57.053605 -30.138783 2.707281 -64.708529 1.361161 0.000000 0.000000 0.000000 -0.518138 9.942993 -1.606347 -7.144335 28.679927 22.620292 -4.943960 -0.329115 3.012122 -3.308264 24.321131 51.232358 -2.846679 51.183194 -0.143098 0.000000 0.000000 0.000000 
60.060280 99.295555 41.435211 0.000000 0.000000 0.000000 1.765117 52.747550 -3.336468 -33.159612 -8.706723 2.669070 23.998717 4.302413 -4.954319 7.870608 -13.696083 1.125947 1.723495 -3.363472 2.037185 0.000000 0.000000 0.000000 2.789949 56.357834 -4.251594 7.634343 -11.082909 -1.115390 22.141067 0.214970 -5.643575 -14.806819 -26.560628 3.626792 -10.184972 -0.182997 1.220775 0.000000 0.000000 0.000000 0.549478 52.168227 -3.334255 6.262965 11.641105 -1.466086 -0.553585 9.309060 -0.684874 0.700877 -2.171038 0.545741 0.000000 0.000000 0.000000 0.005271 9.295473 -0.972924 13.888732 -11.547502 -1.624755 -19.187741 -61.480992 5.605368 0.000000 0.000000 0.000000 -0.667346 9.431080 -0.961991 -2.676149 -5.230729 -16.268797 0.335844 4.734482 -4.158502 24.465692 -55.941838 -32.905171 3.189613 -65.251208 1.660252 0.000000 0.000000 0.000000 -0.394417 9.171016 -1.456312 -6.937278 27.745531 22.892047 -4.519467 -0.351571 3.170675 -1.420076 24.743369 48.997117 -2.697727 54.631842 -0.105830 0.000000 0.000000 0.000000 
59.430641 99.119301 41.294067 0.000000 0.000000 0.000000 2.091470 49.643956 -3.405266 -32.977424 -7.416165 3.934110 24.643690 4.847847 -4.841288 7.598435 -12.641921 1.010133 1.512586 -3.329818 1.847874 0.000000 0.000000 0.000000 2.909351 53.397073 -4.129748 7.089128 -11.197246 -1.210119 21.203668 0.569262 -5.873024 -17.100045 -26.328943 3.715932 -8.772348 0.099374 -1.456362 0.000000 0.000000 0.000000 0.780089 49.701159 -3.423067 6.136695 10.977781 -1.130789 -0.398812 8.492494 -0.463020 0.807465 -2.069134 0.533707 0.000000 0.000000 0.000000 0.083382 8.469485 -0.728021 11.421549 -10.170876 -4.865374 -15.379911 -58.939458 7.478833 0.000000 0.000000 0.000000 -0.495908 8.623650 -0.733996 -2.566328 -4.827013 -16.502977 0.420756 4.317048 -4.229707 21.962311 -54.462279 -35.808633 3.227871 -66.301254 1.662814 0.000000 0.000000 0.000000 -0.278888 8.333137 -1.241399 -6.634829 26.712200 23.079966 -4.081000 -0.037463 3.258570 0.980077 25.101335 46.888986 -2.508357 59.309606 -0.125555 0.000000 0.000000 0.000000 
58.656605 98.995926 41.140621 0.000000 0.000000 0.000000 2.344554 46.666503 -3.429512 -32.743322 -5.918806 5.138110 24.872460 4.939725 -4.607575 7.337537 -11.493142 0.924420 1.410744 -3.289102 1.647349 0.000000 0.000000 0.000000 2.917221 50.579812 -3.933079 6.209078 -11.386006 -1.202597 20.570146 0.924438 -6.005286 -18.682150 -25.406299 3.822571 -7.203428 0.226894 -3.355245 0.000000 0.000000 0.000000 0.928690 47.319366 -3.434989 6.010724 10.259637 -0.855664 -0.216242 7.661338 -0.204499 0.878677 -1.905099 0.511625 0.000000 0.000000 0.000000 0.211116 7.658058 -0.443674 9.291130 -8.752163 -7.992388 -12.240648 -56.397282 8.887773 0.000000 0.000000 0.000000 -0.272552 7.827213 -0.452670 -2.407518 -4.491853 -16.712037 0.514191 3.872569 -4.265610 19.708815 -53.012179 -38.526177 2.982157 -67.407977 1.478854 0.000000 0.000000 0.000000 -0.164050 7.510889 -0.958452 -6.265450 25.547144 23.220640 -3.585814 0.378053 3.288176 3.318902 25.105894 45.242452 -2.298527 64.557493 -0.200064 0.000000 0.000000 0.000000 
57.757137 99.002060 40.944454 0.000000 0.000000 0.000000 2.446698 43.983399 -3.371776 -32.513562 -4.245014 6.277801 24.632768 4.524422 -4.309478 7.202818 -10.362773 0.658259 1.237665 -3.226033 1.506800 0.000000 0.000000 0.000000 2.836025 47.891132 -3.718753 5.149915 -11.462437 -1.154619 19.727058 1.434532 -6.121818 -19.160661 -23.951006 4.163431 -5.571007 0.133567 -4.176176 0.000000 0.000000 0.000000 0.931883 44.986235 -3.304248 5.875061 9.537011 -0.665514 -0.039514 6.884560 0.047888 0.926008 -1.685242 0.485279 0.000000 0.000000 0.000000 0.371224 6.924822 -0.157888 7.612064 -7.435101 -10.679866 -9.882840 -53.973852 9.843215 0.000000 0.000000 0.000000 -0.035632 7.103786 -0.171547 -2.207550 -4.273704 -16.853545 0.647562 3.567790 -4.192067 17.729802 -51.829395 -40.989294 2.734680 -68.213509 1.319757 0.000000 0.000000 0.000000 -0.025371 6.781310 -0.641867 -5.845878 24.235772 23.332980 -3.143618 0.696912 3.191425 5.128035 24.627297 44.183121 -2.066088 69.569185 -0.303821 0.000000 0.000000 0.000000 
